HIERARCHY
ROOT pelvis
{
  OFFSET 0 100 0
  CHANNELS 6 Xposition Yposition Zposition Zrotation Xrotation Yrotation
  JOINT pelvis_right_femur
  {
    OFFSET -10.78128 -3.44521 -0.5502486
    CHANNELS 3 Zrotation Xrotation Yrotation
    JOINT right_femur_tibia
    {
      OFFSET -0.8047443 -44.0398 -0.1307829
      CHANNELS 3 Zrotation Xrotation Yrotation
      JOINT right_tibia_foot
      {
        OFFSET 3.006224 -47.83518 -5
        CHANNELS 3 Zrotation Xrotation Yrotation
        End Site
        {
          OFFSET 0 -5 15
        }
      }
    }
  }
  JOINT pelvis_left_femur
  {
    OFFSET 10.78128 -3.44521 -0.5502486
    CHANNELS 3 Zrotation Xrotation Yrotation
    JOINT left_femur_tibia
    {
      OFFSET 0.8047443 -44.0398 -0.1307829
      CHANNELS 3 Zrotation Xrotation Yrotation
      JOINT left_tibia_foot
      {
        OFFSET -4.370144 -48.10324 -4.275266
        CHANNELS 3 Zrotation Xrotation Yrotation
        End Site
        {
          OFFSET 0 -5 15
        }
      }
    }
  }
  JOINT pelvis_spine1
  {
    OFFSET 0 6.468898 -3.129235
    CHANNELS 3 Zrotation Xrotation Yrotation
    JOINT spine1
    {
      OFFSET 0 23.15396 4.99043
      CHANNELS 3 Zrotation Xrotation Yrotation
      JOINT spine2
      {
        OFFSET 0 20.79997 -5.064912
        CHANNELS 3 Zrotation Xrotation Yrotation
        JOINT neck
        {
          OFFSET 0 14.38658 9.616178
          CHANNELS 3 Zrotation Xrotation Yrotation
          End Site
          {
            OFFSET 0 20 0
          }
        }
      }
      JOINT right_manubrium
      {
        OFFSET -5.722621 16.35077 3.967754
        CHANNELS 3 Zrotation Xrotation Yrotation
        JOINT right_clavicle
        {
          OFFSET -13.16364 1.694482 -4.693211
          CHANNELS 3 Zrotation Xrotation Yrotation
          JOINT right_humerus
          {
            OFFSET -28.5034 -0.3100689 -2.792744
            CHANNELS 3 Zrotation Xrotation Yrotation
            JOINT right_radius
            {
              OFFSET -25.15693 0.02248979 -1.271978
              CHANNELS 3 Zrotation Xrotation Yrotation
              End Site
              {
                OFFSET -15 0 0
              }
            }
          }
        }
      }
      JOINT left_manubrium
      {
        OFFSET 5.722621 16.35077 3.967754
        CHANNELS 3 Zrotation Xrotation Yrotation
        JOINT left_clavicle
        {
          OFFSET 13.16364 1.694482 -4.693211
          CHANNELS 3 Zrotation Xrotation Yrotation
          JOINT left_humerus
          {
            OFFSET 29.39168 -1.063119 -2.237045
            CHANNELS 3 Zrotation Xrotation Yrotation
            JOINT left_radius
            {
              OFFSET 24.59957 -0.9528479 0.9047498
              CHANNELS 3 Zrotation Xrotation Yrotation
              End Site
              {
                OFFSET 15 -0 -0
              }
            }
          }
        }
      }
    }
  }
}
MOTION
Frames: 15
Frame Time: 0.0416666666667
-75.3342 115.9301 2546.294 -2.964666 -8.19065 -30.23881 -0.9885056 22.38755 -1.100621 -0 30.42375 -0 -10.88234 -0.9431336 1.952024 -3.939584 -15.45788 -12.38654 -0 14.84636 -0 -4.622756 -8.001254 22.25562 0.8932398 -2.113199 7.158771 -0.3922174 12.85901 -3.909248 2.16153 21.36185 2.174514 -1.10052 -20.78849 6.409193 -5.684082 -29.33572 9.986297 90.06419 15.97798 -6.269821 -0 0 26.3569 -22.79556 13.19885 16.76769 2.130916 -17.87952 -4.496191 -96.73368 17.4512 36.52042 0 0 -6.642554 1.548695 12.65168 12.71071
-77.77999 116.6841 2552.594 -3.016855 -9.507247 -30.00207 -1.982557 20.60776 -1.594893 -0 38.29999 -0 -12.73688 6.758757 3.148304 -5.322299 -11.23856 -14.02895 -0 16.54009 -0 -4.42446 -9.271892 22.34968 0.7053963 -1.847554 6.868126 -0.422791 12.89845 -3.91316 2.259096 21.89803 2.398315 -0.8832861 -20.72925 6.617136 -5.541407 -28.34496 10.00996 90.59953 16.2305 -7.165486 -0 0 24.25593 -22.54089 12.5252 16.0217 2.193838 -18.19216 -4.842685 -96.26363 18.18489 34.87353 0 0 -7.119381 1.902261 12.70328 12.48784
-80.09932 117.8829 2558.503 -3.34258 -10.33621 -29.45726 -2.119945 16.25674 -2.148527 -0 45.69061 -0 -14.69844 12.87119 4.243822 -5.852629 -6.64952 -14.51865 -0 17.2441 -0 -3.480995 -10.228 21.73656 0.5050374 -1.579247 6.505704 -0.436659 13.05283 -4.03436 2.349639 22.45459 2.655462 -0.616525 -20.62591 6.813196 -5.328173 -27.15517 10.08175 91.39202 16.5465 -8.536986 -0 0 21.59096 -22.19985 11.83246 15.07963 2.238444 -18.79135 -5.385539 -95.41202 18.92197 32.68768 0 0 -8.298458 2.406929 12.77943 12.18996
-82.22159 119.2915 2563.897 -3.910943 -10.63598 -28.77429 -1.591478 9.914825 -2.702049 -0 50.19785 -0 -16.0557 15.67019 4.619844 -5.690243 -2.048213 -14.2196 -0 16.74239 -0 -2.353704 -11.14176 20.7913 0.3223663 -1.356591 6.082698 -0.4192755 13.27837 -4.288399 2.42475 22.96532 2.937221 -0.3147455 -20.51243 6.987207 -5.084639 -25.84355 10.18552 92.42305 16.88004 -10.35581 -0 0 18.53531 -21.80261 11.14926 14.00392 2.289931 -19.69201 -6.049951 -94.16821 19.5635 30.00423 0 0 -10.23447 3.05085 12.89508 11.7827
-84.156 120.5617 2568.804 -4.464232 -10.58088 -28.11048 -0.8809204 2.98859 -3.273758 -0 50.00825 -0 -16.33143 15.04087 4.045808 -5.243414 2.265436 -13.69862 -0 15.3001 -0 -1.698017 -12.40863 19.77876 0.1895593 -1.218993 5.624571 -0.3648212 13.4985 -4.655974 2.481929 23.36524 3.226864 -0.001764221 -20.43229 7.134966 -4.867796 -24.50982 10.29313 93.62644 17.19736 -12.49713 -0 0 15.35651 -21.38208 10.48411 12.87843 2.386996 -20.84579 -6.711549 -92.59264 20.00025 26.94496 0 0 -12.86819 3.799332 13.04375 11.23796
-85.97541 121.4013 2573.351 -4.679668 -10.30569 -27.53605 -0.3934282 -3.213624 -3.982143 -0 45.34105 -0 -15.71612 12.25222 2.974072 -4.911543 6.006681 -13.34812 -0 13.41653 -0 -1.697791 -14.16403 18.7703 0.1253908 -1.180279 5.163367 -0.2765094 13.62514 -5.085859 2.526714 23.61773 3.49989 0.2919634 -20.42443 7.259755 -4.732616 -23.24938 10.37091 94.89671 17.48619 -14.76011 -0 0 12.34805 -20.96184 9.829217 11.78475 2.570802 -22.14137 -7.2285 -90.81784 20.16425 23.69089 0 0 -16.00505 4.599051 13.1991 10.54275
-87.75974 121.683 2577.684 -4.428317 -9.818107 -27.05755 -0.2265204 -8.160537 -4.855674 -0 38.08306 -0 -14.70658 8.787981 2.004142 -4.871262 8.964574 -13.25909 -0 11.53075 -0 -1.938068 -16.14423 17.85641 0.1260835 -1.229236 4.727027 -0.1611298 13.5962 -5.517833 2.567398 23.7273 3.732939 0.5394656 -20.5094 7.368356 -4.709003 -22.13173 10.39321 96.1165 17.74236 -16.93262 -0 0 9.74031 -20.55719 9.182177 10.78832 2.86599 -23.44328 -7.49855 -89.01357 20.06348 20.44154 0 0 -19.35934 5.394391 13.33269 9.706223
-89.5584 121.4279 2581.917 -3.820854 -9.126519 -26.66858 -0.2452463 -11.97429 -5.77567 -0 30.28578 -0 -13.70197 5.614003 1.423759 -5.088061 11.12666 -13.33436 -0 9.955256 -0 -1.826718 -17.92995 17.20852 0.1696734 -1.343747 4.335744 -0.0259935 13.40366 -5.905217 2.606133 23.72909 3.916942 0.7297036 -20.6807 7.464439 -4.787847 -21.19413 10.35461 97.18382 17.94989 -18.85414 -0 0 7.648925 -20.18608 8.562877 9.940434 3.265165 -24.6397 -7.504459 -87.33961 19.77319 17.38567 0 0 -22.6382 6.140505 13.42715 8.77253
-91.39451 120.7371 2586.128 -3.064538 -8.308534 -26.36282 -0.2684739 -14.98265 -6.593012 -0 23.26687 -0 -12.93533 3.143514 1.229128 -5.445849 12.65235 -13.43844 -0 8.918395 -0 -1.002749 -19.21431 16.94956 0.2292066 -1.502416 4.003697 0.1195004 13.09384 -6.224094 2.636363 23.66703 4.060831 0.8705047 -20.90697 7.545939 -4.927485 -20.447 10.27166 98.03325 18.08195 -20.44352 -0 0 6.078832 -19.87359 8.008957 9.278415 3.727652 -25.66792 -7.31392 -85.90917 19.39409 14.68323 0 0 -25.61233 6.805562 13.47836 7.822711
-93.28475 119.7397 2590.372 -2.343101 -7.480886 -26.12759 -0.1660617 -17.43813 -7.212777 -0 17.61746 -0 -12.5329 1.460388 1.293859 -5.835987 13.74919 -13.47022 -0 8.600017 -0 0.5871845 -19.85684 17.07769 0.2852631 -1.687787 3.740707 0.2624369 12.74486 -6.470842 2.648852 23.57643 4.18141 0.979044 -21.14586 7.607673 -5.077549 -19.88568 10.17449 98.64869 18.11919 -21.69086 -0 0 4.965663 -19.64699 7.558846 8.818796 4.193645 -26.51202 -7.038191 -84.77588 19.00693 12.45168 0 0 -28.14365 7.368557 13.49377 6.95086
-95.25141 118.5677 2594.696 -1.789152 -6.767666 -25.94598 0.1379413 -19.44605 -7.590171 -0 13.52865 -0 -12.5685 0.5013852 1.467021 -6.178504 14.58792 -13.37308 -0 9.163238 -0 2.794236 -19.821 17.49163 0.3314583 -1.886306 3.553504 0.3876214 12.44062 -6.654349 2.638816 23.47697 4.289912 1.069745 -21.35945 7.644439 -5.201747 -19.50318 10.09625 99.06029 18.06146 -22.63026 -0 0 4.225096 -19.5308 7.240097 8.55547 4.602942 -27.18646 -6.785775 -83.94554 18.64788 10.76348 0 0 -30.17487 7.817474 13.48958 6.233043
-97.32432 117.3457 2599.14 -1.501944 -6.297992 -25.80721 0.6877097 -20.97169 -7.694969 -0 11.04633 -0 -13.08742 0.138786 1.591824 -6.412388 15.27163 -13.129 -0 10.77805 -0 5.366015 -19.12141 18.04684 0.3726411 -2.088508 3.447524 0.4800097 12.25518 -6.788187 2.608189 23.37427 4.385644 1.148537 -21.52127 7.651549 -5.285559 -19.29867 10.06627 99.32587 17.9245 -23.31101 -0 0 3.787669 -19.54592 7.068997 8.467773 4.906547 -27.71862 -6.638493 -83.3993 18.31051 9.657901 0 0 -31.70012 8.146828 13.48576 5.71364
-99.53607 116.1873 2603.732 -1.56793 -6.218887 -25.72008 1.506776 -21.85077 -7.48478 -0 10.17967 -0 -14.10077 0.1967914 1.487665 -6.481223 15.82313 -12.75927 -0 13.61513 -0 7.995049 -17.81016 18.60891 0.419396 -2.288425 3.428371 0.5267938 12.24765 -6.885547 2.563755 23.26464 4.457124 1.213535 -21.61475 7.623758 -5.330657 -19.27983 10.10753 99.50785 17.7315 -23.77643 -0 0 3.613457 -19.70895 7.05645 8.53155 5.068397 -28.1352 -6.64942 -83.11329 17.96299 9.158182 0 0 -32.73383 8.353937 13.5006 5.410844
-101.9129 115.1871 2608.48 -2.070362 -6.706709 -25.72921 2.589011 -21.78979 -6.898766 -0 10.89217 -0 -15.55457 0.4408569 0.9254461 -6.322155 16.17017 -12.33408 -0 17.78275 -0 10.34144 -15.98788 19.10811 0.4823384 -2.481527 3.502034 0.5191563 12.46162 -6.957226 2.514131 23.13905 4.486238 1.258079 -21.6287 7.554353 -5.34513 -19.46129 10.23625 99.65522 17.5089 -24.05147 -0 0 3.69356 -20.02842 7.21415 8.726508 5.062026 -28.45276 -6.848985 -83.06817 17.56591 9.284416 0 0 -33.28888 8.435456 13.54653 5.328569
-104.4621 114.4059 2613.35 -3.086521 -7.958699 -25.93199 3.872395 -20.37618 -5.874621 -0 13.00435 -0 -17.28338 0.5729582 -0.376632 -5.860933 16.13348 -11.98252 -0 23.17185 -0 12.05969 -13.8207 19.59471 0.5675748 -2.661872 3.67347 0.4543855 12.92242 -7.011399 2.46718 22.98531 4.452585 1.273304 -21.5547 7.435421 -5.335659 -19.86067 10.46073 99.79184 17.28796 -24.13662 -0 0 4.046368 -20.49706 7.557551 9.038299 4.868455 -28.67139 -7.247615 -83.25011 17.08505 10.05632 0 0 -33.36807 8.385708 13.62711 5.464782
